PathFileType	4	(X/Y/Z)	RBDS017\RBDS017runT25.trc
DataRate	CameraRate	NumFrames	NumMarkers	Units	OrigDataRate	OrigDataStartFrame	OrigNumFrames
150.000000	150.000000	5	33	mm	150.000000	562	4500
Frame#	Time	L.ASIS			L.Heel.Bottom			L.Heel.Lateral			L.Heel.Top			L.Iliac.Crest			L.MT1			L.MT5			L.PSIS			L.Shank.Bottom.Lateral			L.Shank.Bottom.Medial			L.Shank.Top.Lateral			L.Shank.Top.Medial			L.Thigh.Bottom.Lateral			L.Thigh.Bottom.Medial			L.Thigh.Top.Lateral			L.Thigh.Top.Medial			R.ASIS			R.ASY			R.Heel.Bottom			R.Heel.Lateral			R.Heel.Top			R.Iliac.Crest			R.MT1			R.MT5			R.PSIS			R.Shank.Bottom.Lateral			R.Shank.Bottom.Medial			R.Shank.Top.Lateral			R.Shank.Top.Medial			R.Thigh.Bottom.Lateral			R.Thigh.Bottom.Medial			R.Thigh.Top.Lateral			R.Thigh.Top.Medial			
		X1	Y1	Z1	X2	Y2	Z2	X3	Y3	Z3	X4	Y4	Z4	X5	Y5	Z5	X6	Y6	Z6	X7	Y7	Z7	X8	Y8	Z8	X9	Y9	Z9	X10	Y10	Z10	X11	Y11	Z11	X12	Y12	Z12	X13	Y13	Z13	X14	Y14	Z14	X15	Y15	Z15	X16	Y16	Z16	X17	Y17	Z17	X18	Y18	Z18	X19	Y19	Z19	X20	Y20	Z20	X21	Y21	Z21	X22	Y22	Z22	X23	Y23	Z23	X24	Y24	Z24	X25	Y25	Z25	X26	Y26	Z26	X27	Y27	Z27	X28	Y28	Z28	X29	Y29	Z29	X30	Y30	Z30	X31	Y31	Z31	X32	Y32	Z32	X33	Y33	Z33	

563	3.746666666666667	2185.965883089077	1076.029429678762	879.7873520861665	1513.725430839649	438.6754789660586	936.6094827341336	1529.354281628952	430.17449086286	894.2437563999376	1558.930393178542	444.0840742569418	930.2745175417208	2137.470452051142	1183.532130466363	845.9960309272326	1598.704228383031	227.1440171804378	920.7847889251832	1552.826545118429	273.6070917255142	827.0356957462288	2013.397909200931	1147.446339917065	959.0988390035136	1677.036608115027	435.9388445710317	855.8818460398826	1662.775316446855	469.4742577194542	897.7990283079105	1744.759027007223	478.0255510903195	845.7896229056354	1731.031422186028	511.9790644270203	885.2816175349427	2048.572867564586	686.0304644552893	820.4684336688032	1986.408381099592	687.7901052118308	857.8376410411904	2046.214358862306	796.2972560093742	817.7460190394116	1989.630716057486	798.1371272390589	856.6616707692381	2169.908715838191	1074.302751159195	1155.721913690915	2373.338671955726	106.301251786745	1112.218053831511	2187.526928253244	39.75150283539486	1057.681151051362	2201.985248442345	55.31170724032442	1104.52207759855	2190.659144152464	85.80513228293417	1068.246295981008	2113.40023800308	1169.698589859349	1194.642621445145	2405.966107313307	88.39006881979419	1066.154319871943	2357.956997007907	50.45748120647316	1165.379077723051	2005.959515541861	1141.483902881167	1062.070096238728	2220.973608300579	205.0818546396059	1135.932486004594	2188.122211011272	204.7678237211908	1096.244975569298	2203.132296930444	287.397292643411	1148.575326891656	2167.453335111059	282.2314098667034	1108.328531004735	2169.326685918988	680.4572984386256	1170.720328698473	2115.41655545448	661.7901837676618	1125.581036690214	2123.114223132452	779.7007336418935	1180.807099733956	2071.880794796212	762.2469777921002	1138.006392804095	
564	3.753333333333333	2185.499073603295	1070.246887729614	880.4863807080098	1517.264685186507	452.4512747851045	935.3618772816211	1532.637241623425	442.8430913499881	893.1270445255486	1562.696920155912	455.8849395182017	929.168708623478	2136.648047094803	1177.427644452336	846.1286985586083	1593.565474799548	237.3805541000955	921.8048474432532	1549.83955902026	284.7878735451963	827.5190871285899	2012.530234419161	1140.601101839843	958.6838465832776	1680.440756415575	442.1141377858056	855.1859595980926	1667.346758908569	476.5199306766437	896.7041083341318	1749.824775099021	481.3650723700288	844.9966651436957	1737.292174379445	516.1299302746867	884.1411101218945	2053.60084889322	678.901793160162	820.0305326868945	1991.498576915824	679.5931056926878	857.6205637358321	2049.470545583848	789.0943958658443	817.5939490905197	1992.989916528395	789.9999392238909	856.637868029394	2168.738719041595	1068.882838383233	1156.737956682673	2363.564592599188	100.1360971129037	1108.945250198372	2175.640716445035	37.08799273487253	1057.098137009408	2190.860072593323	52.98400591699907	1103.521497022118	2180.038589849459	83.16248659988852	1066.920947438929	2111.529509331778	1163.418681611275	1195.380683292364	2395.414337556252	80.75732767711006	1062.897892847676	2347.263044579072	46.146922987053	1163.471474855367	2004.825982247364	1134.649246328946	1061.627766595092	2214.505768302725	200.6008207344935	1134.401173402358	2181.16277354735	201.4972783025916	1095.235877624606	2199.139892688734	283.2065556372302	1147.685168401642	2162.882687385881	279.3701896930428	1107.972896316516	2171.311439414801	675.9459299895082	1170.597692496893	2117.066056963924	656.6719073250437	1126.116427227539	2124.393299701407	774.7520954730159	1180.958003127718	2072.869154214909	756.7608593361937	1138.733440073883	
565	3.76	2184.871304117446	1063.898715536747	881.213115696606	1522.021691353131	465.456200692237	934.1234847931236	1537.119829246382	454.8165210706865	892.0082308150337	1567.597539410408	467.0127987004412	928.1135147236395	2135.918163219754	1170.642989726887	846.220844449789	1589.78152318357	247.2701427636785	922.6097272118235	1548.173518199084	295.6113414298964	827.8287500123532	2011.476653137443	1133.310334585391	958.2761739514407	1684.760837574929	447.7701781093459	854.4958908220669	1672.873980798688	482.9919823776247	895.6243260248938	1755.647959056612	484.1972075802443	844.1806456680916	1744.355681385933	519.7028828101389	882.99864028132	2058.692762322864	671.4970427866947	819.5777798689227	1996.701826148187	671.0766213053731	857.4241993244352	2052.721984238538	781.5919562207091	817.429324263529	1996.390786912494	781.5254644198453	856.6371221836151	2167.486301811601	1063.037156228709	1157.683847672004	2352.236245599444	94.34705289372833	1105.620424003525	2162.196685549546	34.89701928996136	1056.341953156432	2178.144007446946	51.24817180966869	1102.311476690227	2167.928663645778	81.00692871878844	1065.280536247633	2109.800479308549	1156.655041916	1196.062152921933	2383.424271237878	73.40085530708038	1059.762315500961	2334.882600324468	42.45444317469401	1161.682233254436	2003.55148315442	1127.508378060286	1061.164829506798	2207.200467375387	196.4354094501682	1132.575127601698	2173.286760216416	198.7662264780743	1094.067222712934	2194.741801238027	279.3146913087326	1146.58637547454	2157.827586510469	277.0445736953826	1107.534202985544	2173.682936337624	671.3505052348338	1170.484945643455	2119.115272232136	651.3775053624322	1126.681028001504	2125.896357648578	769.6097221602499	1181.186940901916	2074.081888515523	750.9993327675426	1139.578581785696	
566	3.766666666666667	2184.055588394109	1057.027085121348	881.9691502174445	1527.891637413536	477.5575935962461	932.8842034533368	1542.716664862475	465.9782339104012	890.8802538976606	1573.532146616369	477.3706420391234	927.107116365965	2135.254627953552	1163.192574778406	846.2866781822249	1587.422370619839	256.704563333562	923.1987940435679	1547.891987490863	305.9411782225529	827.956543274052	2010.196548917024	1125.673549783334	957.9499424231248	1689.957825065044	452.8884035943862	853.8190226320675	1679.302580436303	488.8627494950114	894.5737240169449	1762.185408229576	486.5384193187932	843.3539064607859	1752.161530821404	522.7082453971669	881.8715595482762	2063.846517211873	663.9525369634217	819.1206336293052	2002.00907630662	662.3830587024523	857.2381655197644	2055.979229078799	773.9242722771997	817.2608463732863	1999.835542367937	772.8491903580605	856.6556661154192	2166.138551214754	1056.812178295517	1158.566891777722	2339.56013139732	89.22042569242257	1102.376313453321	2147.54774511799	33.19207942057308	1055.466732202933	2164.15672304181	50.11809116233616	1100.956229013517	2154.602790602613	79.34819956778949	1063.394953255798	2108.215463925627	1149.407432886652	1196.688845539022	2370.248675229532	66.70754187754464	1056.888378527759	2321.112725957748	39.57438844401109	1160.087561041	2002.104210210267	1120.162056945884	1060.732772564295	2199.199904506479	192.721690426434	1130.502911775851	2164.649687347062	196.6614186355029	1092.784874897556	2190.005220498781	275.825645761461	1145.291428143297	2152.367764841211	275.3072654256875	1107.02276577725	2176.292067110572	666.7098743130078	1170.33897295101	2121.435856739181	645.9908494960719	1127.188331256637	2127.5213610797	764.3370695458977	1181.457388005919	2075.426801044482	745.0608573624842	1140.476153994327	
567	3.773333333333333	2183.023237340715	1049.702072317581	882.7439628229009	1534.755190398104	488.6385544007647	931.6237319855807	1549.330532232694	476.2192144315512	889.7285802105258	1580.390590221871	486.87022243939	926.1361978606025	2134.604999422675	1155.124294063934	846.3342607926775	1586.546454369221	265.5719546078667	923.5905829530672	1549.050459265673	315.6265660576177	827.9065403967965	2008.661286781928	1117.820888089216	957.7729721150207	1695.995922995994	457.4547768382672	853.1593271149554	1686.574408221787	494.1116613777741	893.5598949607917	1769.401821924308	488.4114581956954	842.5290123284358	1760.649337853503	525.1662984950393	880.7737572785421	2069.070816494115	656.4201829440636	818.6738756041256	2007.422122774498	653.6667101604414	857.0578274565861	2059.258500812823	766.2401115019923	817.1040170601087	2003.331330885718	764.1187226641252	856.694587537022	2164.687100571879	1050.284317456727	1159.403168631869	2325.75860245956	84.94996481323302	1099.338239091579	2132.030128767172	31.96252459137391	1054.53416409734	2149.21210352701	49.56184570929721	1099.531450470979	2140.329910215892	78.16923288938241	1061.361956780616	2106.750497466605	1141.705221867006	1197.267421439857	2356.134054703597	60.96940111160225	1054.389478587766	2306.257574694828	37.59042589937275	1158.737059411055	2000.466802626273	1112.731253928292	1060.378285539766	2190.616140177303	189.5562453093311	1128.259321729736	2155.390915733147	195.2214312342789	1091.443090395712	2184.950625389887	272.8083396105414	1143.830994749582	2146.549604240852	274.1671519774617	1106.450712323494	2178.96427608208	662.062605406139	1170.11725936656	2123.869120720895	640.5994303327439	1127.556835977293	2129.154171332206	759.0064562821786	1181.72537224562	2076.795925608858	739.0567339206399	1141.355847353978	
